<svg width="32" height="32" viewBox="0 0 32 32" fill="none" xmlns="http://www.w3.org/2000/svg">
<path d="M2.3359 11.2632C1.7746 11.2897 1.2389 11.5259 0.819012 11.9319L0.788151 11.9603C0.614098 12.1361 0.463837 12.3378 0.341858 12.5594V12.5749C0.118816 12.9893 0.000840909 13.4606 3.01932e-06 13.9408V21.2326C-0.000686132 21.7078 0.11661 22.1744 0.339482 22.5831V22.6037C0.541354 22.9747 0.823638 23.2864 1.16171 23.5114C1.49978 23.7364 1.88334 23.8681 2.27893 23.8948H2.42373H6.4V21.5709H2.38102C2.35668 21.5655 2.33283 21.5577 2.30979 21.5476C2.25618 21.522 2.21046 21.4801 2.17806 21.427C2.14566 21.3739 2.12794 21.3118 2.127 21.2481V13.9098C2.12777 13.8523 2.14246 13.796 2.16954 13.7466C2.19662 13.6972 2.23515 13.6564 2.28131 13.6284H2.29794C2.32306 13.6137 2.35039 13.6041 2.37864 13.6H2.40713H6.4V11.2761H2.3359V11.2632Z" fill="#FF333E"/>
<path d="M30.2779 6.15389C29.985 6.05182 29.6771 5.9998 29.367 6H11.1996C11.052 6.00008 10.9048 6.01295 10.7595 6.03847C10.1651 6.14075 9.62239 6.44047 9.2186 6.88939C8.8148 7.33831 8.57345 7.91034 8.53333 8.51344V16.1563C8.53333 16.1563 8.61776 16.2281 8.62288 16.2717V16.3641L8.63821 16.4692C8.63821 16.4897 8.63821 16.5102 8.63821 16.5308V16.5692C8.65101 16.6334 8.66893 16.6949 8.68685 16.7565C8.70476 16.818 8.7201 16.8616 8.73545 16.9001L8.80966 17.0822C8.80966 17.0976 8.80966 17.1053 8.80966 17.1027C8.83761 17.1669 8.86922 17.2294 8.90434 17.2899C8.92993 17.3361 8.95806 17.3797 8.98364 17.4182C8.99861 17.446 9.01574 17.4725 9.03484 17.4977C9.07322 17.5541 9.11416 17.608 9.16278 17.6669L9.55937 18.0619L9.62334 18.1132C9.65159 18.1367 9.68154 18.1582 9.71292 18.1773C9.73389 18.1956 9.75708 18.2111 9.78199 18.2235C9.81155 18.2433 9.84234 18.2613 9.87413 18.2773L9.89971 18.2979L9.94575 18.3261L10.0455 18.3774L10.0635 18.5543H10.0814C10.0814 18.5543 10.1172 18.4107 10.1479 18.4261C10.1786 18.4415 10.2554 18.4723 10.3219 18.4953L10.4166 18.5287C10.4406 18.5379 10.4654 18.5447 10.4908 18.5492H10.5164L10.6238 18.5774L10.7543 18.6056H10.7825C10.8477 18.6168 10.9135 18.6245 10.9795 18.6287C11.0127 18.6325 11.0462 18.6325 11.0793 18.6287C11.1254 18.6287 11.2201 18.5338 11.2201 18.5338H18.4537V16.2256H11.2201C11.2201 16.2256 11.1766 16.2743 11.1561 16.2692L11.1151 16.2563H11.0921L11.0691 16.2435C11.0521 16.236 11.0365 16.2256 11.023 16.2127L10.9898 16.1845L10.977 16.1691L10.9514 16.1358V16.1127C10.9435 16.0987 10.9367 16.0841 10.9309 16.0691C10.9295 16.0503 10.9295 16.0315 10.9309 16.0127C10.9309 15.9973 10.9309 15.9793 11.0589 15.9614V8.67758C10.9258 8.65962 10.9258 8.64167 10.9309 8.62372C10.9297 8.61264 10.9297 8.60146 10.9309 8.59038V8.56473L10.9462 8.53138V8.51344C10.9507 8.50314 10.9567 8.49361 10.9642 8.48522L11.0307 8.43393C11.0307 8.43393 11.0307 8.41598 11.0512 8.40828H11.0716H11.087H11.1126L11.1535 8.39545H11.174C11.1893 8.39545 11.2175 8.31852 11.2175 8.31852H29.129C29.2139 8.31852 29.2952 8.35229 29.3552 8.41241C29.4152 8.47254 29.4489 8.55408 29.4489 8.63911V15.946C29.4486 15.996 29.4366 16.0452 29.414 16.0898C29.3913 16.1343 29.3586 16.1729 29.3184 16.2025C29.2664 16.2432 29.2026 16.2657 29.1367 16.2666H24.8431V18.5749H29.3005C29.3875 18.5749 29.4745 18.5749 29.5563 18.5749H29.6203C29.8208 18.5497 30.0181 18.5033 30.2088 18.4364C30.729 18.2552 31.1804 17.9171 31.5012 17.4684C31.8219 17.0197 31.9961 16.4826 32 15.9306V8.65706C31.9997 8.11409 31.8349 7.58401 31.5274 7.13701C31.2199 6.69001 30.7842 6.34717 30.2779 6.15389Z" fill="#FF333E"/>
<path d="M21.0893 11.6062C20.7068 11.3813 20.2755 11.2632 19.8368 11.2632H12.9409V13.5499H19.9193C19.9998 13.5499 20.077 13.5834 20.1339 13.643C20.1908 13.7025 20.2227 13.7833 20.2227 13.8675V21.1089C20.2221 21.1929 20.1899 21.2733 20.1332 21.3328C20.0764 21.3922 19.9996 21.4259 19.9193 21.4265H12.8L17.1692 26H20.3756L18.4338 23.9674H19.8562C19.9764 23.9691 20.0966 23.9606 20.2155 23.9419C20.8227 23.8417 21.376 23.5185 21.7763 23.0301C22.1766 22.5417 22.3977 21.9201 22.4 21.2766V13.9615C22.4024 13.3958 22.2323 12.8439 21.9146 12.3862C21.696 12.0674 21.4145 11.8014 21.0893 11.6062Z" fill="#FF333E"/>
</svg>
