<svg width="334" height="49" viewBox="0 0 334 49" fill="none" xmlns="http://www.w3.org/2000/svg">
<g clip-path="url(#clip0_303_323)">
<path d="M6.08502 12.5704C4.63023 12.635 3.24177 13.2096 2.1535 14.1975L2.07351 14.2665C1.6224 14.6941 1.23295 15.1848 0.916799 15.724V15.7617C0.338713 16.7699 0.0329412 17.9166 0.0307695 19.0849V36.8254C0.0289834 37.9815 0.332994 39.1166 0.91064 40.1109V40.1612C1.43386 41.0638 2.16549 41.822 3.04171 42.3695C3.91793 42.917 4.91205 43.2372 5.93736 43.3022H6.31266H16.6185V37.6483H6.20196C6.13887 37.6353 6.07705 37.6164 6.01735 37.5918C5.87838 37.5293 5.75989 37.4275 5.67591 37.2983C5.59194 37.1691 5.546 37.0181 5.54358 36.8631V19.0095C5.54557 18.8696 5.58364 18.7327 5.65383 18.6125C5.72403 18.4923 5.8239 18.393 5.94352 18.3247H5.98663C6.05173 18.2891 6.12257 18.2657 6.1958 18.2557H6.26963H16.6185V12.6018H6.08502V12.5704Z" fill="#FF333E"/>
<path d="M73.2051 0.389502C72.5008 0.139503 71.7603 0.0120845 71.0147 0.0125747H27.3304C26.9756 0.0127758 26.6216 0.0442997 26.2721 0.106802C24.843 0.357321 23.538 1.09145 22.5671 2.19105C21.5961 3.29064 21.0158 4.69178 20.9193 6.169V24.8895C20.9193 24.8895 21.1223 25.0654 21.1346 25.1722V25.3983L21.1715 25.6559C21.1715 25.7062 21.1715 25.7564 21.1715 25.8067V25.9009C21.2023 26.058 21.2454 26.2087 21.2885 26.3595C21.3315 26.5103 21.3684 26.6171 21.4053 26.7113L21.5838 27.1573C21.5838 27.195 21.5838 27.2139 21.5838 27.2076C21.651 27.3648 21.727 27.5179 21.8114 27.6662C21.873 27.7793 21.9406 27.886 22.0021 27.9803C22.0381 28.0484 22.0793 28.1135 22.1252 28.175C22.2175 28.3132 22.316 28.4451 22.4329 28.5896L23.3865 29.5571L23.5403 29.6827C23.6082 29.7404 23.6802 29.7929 23.7557 29.8398C23.8061 29.8845 23.8619 29.9225 23.9218 29.9528V29.9528C23.9928 30.0015 24.0669 30.0455 24.1433 30.0847L24.2048 30.135L24.3155 30.2041L24.5555 30.3298L24.5986 30.7632H24.6417C24.6417 30.7632 24.7278 30.4114 24.8016 30.4491C24.8755 30.4868 25.0601 30.5622 25.2201 30.6187L25.4477 30.7004C25.5055 30.7229 25.5652 30.7397 25.6261 30.7506H25.6877L25.946 30.8198L26.2598 30.8889H26.3275C26.4843 30.9163 26.6425 30.9352 26.8013 30.9454C26.881 30.9547 26.9615 30.9547 27.0412 30.9454C27.152 30.9454 27.3797 30.713 27.3797 30.713H44.7733V25.0591H27.3797C27.3797 25.0591 27.2751 25.1785 27.2258 25.1659L27.1274 25.1345H27.072L27.0166 25.1031C26.9757 25.0847 26.9383 25.0592 26.9059 25.0277L26.8259 24.9586L26.7951 24.9209L26.7336 24.8393V24.7827C26.7147 24.7484 26.6983 24.7127 26.6844 24.6759C26.6809 24.6299 26.6809 24.5837 26.6844 24.5377C26.6844 24.5 26.6844 24.456 26.992 24.4121V6.57104C26.6721 6.52706 26.6721 6.48309 26.6844 6.43912C26.6816 6.41197 26.6816 6.38459 26.6844 6.35745V6.29463L26.7213 6.21296V6.169C26.7319 6.14376 26.7465 6.12042 26.7644 6.09988L26.9243 5.97425C26.9243 5.97425 26.9243 5.93028 26.9736 5.91143H27.0228H27.0597H27.1212L27.2197 5.88001H27.2689C27.3058 5.88001 27.3735 5.69155 27.3735 5.69155H70.4425C70.6465 5.69155 70.842 5.77429 70.9863 5.92155C71.1305 6.06882 71.2116 6.26855 71.2116 6.47681V24.3744C71.2109 24.4968 71.1821 24.6174 71.1276 24.7265C71.0731 24.8355 70.9944 24.9301 70.8978 25.0026C70.7729 25.1022 70.6194 25.1574 70.4609 25.1596H60.1367V30.8135H70.8547C71.0639 30.8135 71.2731 30.8135 71.4699 30.8135H71.6238C72.1059 30.7518 72.5803 30.6381 73.0389 30.4743C74.2897 30.0306 75.3752 29.2023 76.1464 28.1034C76.9175 27.0044 77.3366 25.6886 77.3458 24.3367V6.52079C77.3451 5.19084 76.9488 3.89245 76.2094 2.79757C75.4699 1.70268 74.4223 0.862938 73.2051 0.389502V0.389502Z" fill="#FF333E"/>
<path d="M52.0335 13.4122C51.064 12.8563 49.9707 12.5642 48.8587 12.5641H31.3789V18.218H49.0679C49.2719 18.218 49.4675 18.3007 49.6117 18.448C49.7559 18.5952 49.837 18.795 49.837 19.0032V36.9071C49.8354 37.1148 49.7539 37.3136 49.61 37.4605C49.4661 37.6074 49.2714 37.6907 49.0679 37.6923H31.022L42.0969 49H50.2246L45.3024 43.9744H48.908C49.2127 43.9787 49.5172 43.9577 49.8185 43.9116C51.3578 43.6638 52.7603 42.8646 53.775 41.6571C54.7897 40.4496 55.3501 38.9127 55.356 37.3217V19.2357C55.3619 17.8368 54.9308 16.4724 54.1254 15.3408C53.5714 14.5524 52.858 13.8948 52.0335 13.4122V13.4122Z" fill="#FF333E"/>
<path d="M98.8372 6.08731C105.784 6.08731 109.088 10.0199 109.088 14.9513C109.088 18.8022 107.014 22.4897 102.055 23.6017L109.438 36.2286H104.824L97.7913 23.9032H93.1275V36.2286H89.3313V6.07474L98.8372 6.08731ZM98.8372 9.32885H93.1583V20.7496H98.8372C103.199 20.7496 105.107 18.3247 105.107 14.9513C105.107 11.5778 103.243 9.32885 98.8372 9.32885Z" fill="#151719"/>
<path d="M123.11 12.1432C127.417 12.1432 130.395 14.3922 131.724 16.8548V12.5327H135.618V36.2286H131.724V31.8312C130.327 34.3817 127.318 36.6307 123.042 36.6307C116.852 36.6307 112.066 31.6616 112.066 24.3053C112.066 16.949 116.877 12.1432 123.11 12.1432ZM123.867 15.5607C119.633 15.5607 116.034 18.7017 116.034 24.2927C116.034 29.8837 119.633 33.163 123.867 33.163C128.1 33.163 131.748 29.9151 131.748 24.3367C131.748 18.7582 128.093 15.5607 123.867 15.5607Z" fill="#151719"/>
<path d="M141.358 15.7742H138.356V12.5327H141.358V10.8428C141.358 5.56591 143.906 3.19128 149.831 3.19128V6.4768C146.361 6.4768 145.216 7.77091 145.216 10.8428V12.5327H150.089V15.7742H145.216V36.2286H141.358V15.7742Z" fill="#151719"/>
<path d="M162.622 12.1432C166.929 12.1432 169.913 14.3922 171.267 16.8548V12.5327H175.162V36.2286H171.267V31.8312C169.87 34.3817 166.862 36.6307 162.586 36.6307C156.396 36.6307 151.609 31.6616 151.609 24.3053C151.609 16.949 156.396 12.1432 162.622 12.1432ZM163.385 15.5607C159.152 15.5607 155.553 18.7017 155.553 24.2927C155.553 29.8837 159.152 33.163 163.385 33.163C167.618 33.163 171.267 29.9151 171.267 24.3367C171.267 18.7582 167.625 15.5607 163.385 15.5607Z" fill="#151719"/>
<path d="M190.199 36.6181C183.591 36.6181 178.718 31.8626 178.718 24.3367C178.718 16.8108 183.425 12.1432 190.199 12.1432C196.973 12.1432 201.341 16.9867 201.341 23.4509C201.343 24.2464 201.299 25.0413 201.212 25.8318H182.662C182.957 30.6313 186.261 33.2698 190.199 33.2698C193.675 33.2698 195.878 31.4543 196.721 28.9037H200.874C199.686 33.2446 195.958 36.6181 190.199 36.6181ZM182.699 22.6531H197.361C197.398 18.0232 194.014 15.4727 190.033 15.4727C186.261 15.4664 183.123 18.0232 182.699 22.6531Z" fill="#151719"/>
<path d="M204.898 4.22781H208.749V36.2286H204.898V4.22781Z" fill="#151719"/>
<path d="M223.577 6.08731H240.264V9.28487H227.429V19.4492H237.852V22.6531H227.429V36.2286H223.577V6.08731Z" fill="#151719"/>
<path d="M247.253 36.2286H243.395V12.5327H247.253V16.3773C248.563 13.7389 251.068 12.0992 254.753 12.0992V16.1637H253.732C250.04 16.1637 247.253 17.8473 247.253 23.3441V36.2286Z" fill="#151719"/>
<path d="M267.243 12.1432C271.55 12.1432 274.528 14.3922 275.857 16.8548V12.5327H279.752V36.2286H275.857V31.8312C274.46 34.3817 271.452 36.6307 267.169 36.6307C261.017 36.6307 256.199 31.6616 256.199 24.3053C256.199 16.949 260.992 12.1432 267.243 12.1432ZM268.006 15.5607C263.773 15.5607 260.168 18.7017 260.168 24.2927C260.168 29.8837 263.773 33.163 268.006 33.163C272.239 33.163 275.888 29.9151 275.888 24.3367C275.888 18.7582 272.245 15.5607 268.006 15.5607Z" fill="#151719"/>
<path d="M294.352 12.1432C298.591 12.1432 301.637 14.3042 302.997 16.8548V12.5327H306.891V36.75C306.891 43.2833 302.615 47.9069 295.816 47.9069C289.719 47.9069 285.357 44.7659 284.594 39.69H288.402C289.251 42.5483 292.008 44.4895 295.786 44.4895C299.896 44.4895 302.99 41.8133 302.99 36.75V31.7998C302.105 33.3226 300.836 34.5753 299.316 35.4272C297.796 36.279 296.079 36.699 294.346 36.6432C288.119 36.6432 283.333 31.6741 283.333 24.3178C283.333 16.9616 288.125 12.1432 294.352 12.1432ZM295.115 15.5607C290.882 15.5607 287.276 18.7017 287.276 24.2927C287.276 29.8837 290.882 33.163 295.115 33.163C299.348 33.163 302.997 29.9151 302.997 24.3367C302.997 18.7582 299.354 15.5607 295.115 15.5607V15.5607Z" fill="#151719"/>
<path d="M321.461 12.1432C325.768 12.1432 328.746 14.3922 330.075 16.8548V12.5327H333.975V36.2286H330.075V31.8312C328.678 34.3817 325.669 36.6307 321.393 36.6307C315.21 36.6307 310.423 31.6616 310.423 24.3053C310.423 16.949 315.234 12.1432 321.461 12.1432ZM322.224 15.5607C317.985 15.5607 314.385 18.7017 314.385 24.2927C314.385 29.8837 317.985 33.163 322.224 33.163C326.463 33.163 330.099 29.9151 330.099 24.3367C330.099 18.7582 326.457 15.5607 322.224 15.5607Z" fill="#151719"/>
</g>
<defs>
<clipPath id="clip0_303_323">
<rect width="334" height="49" fill="white"/>
</clipPath>
</defs>
</svg>
